<svg width="9" height="11" viewBox="0 0 9 11" xmlns="http://www.w3.org/2000/svg">
<path d="M4.5 7.79166C4.74312 7.79166 4.97627 7.69508 5.14818 7.52318C5.32009 7.35127 5.41667 7.11811 5.41667 6.875C5.41667 6.36624 5.00417 5.95833 4.5 5.95833C4.25689 5.95833 4.02373 6.05491 3.85182 6.22681C3.67991 6.39872 3.58334 6.63188 3.58334 6.875C3.58334 7.11811 3.67991 7.35127 3.85182 7.52318C4.02373 7.69508 4.25689 7.79166 4.5 7.79166ZM7.25 3.66666C7.49312 3.66666 7.72627 3.76324 7.89818 3.93515C8.07009 4.10706 8.16667 4.34021 8.16667 4.58333V9.16666C8.16667 9.40978 8.07009 9.64293 7.89818 9.81484C7.72627 9.98675 7.49312 10.0833 7.25 10.0833H1.75C1.50689 10.0833 1.27373 9.98675 1.10182 9.81484C0.929913 9.64293 0.833336 9.40978 0.833336 9.16666V4.58333C0.833336 4.07458 1.24584 3.66666 1.75 3.66666H2.20834V2.74999C2.20834 2.14221 2.44978 1.55931 2.87955 1.12954C3.30932 0.699771 3.89221 0.458328 4.5 0.458328C4.80095 0.458328 5.09895 0.517604 5.37698 0.632771C5.65502 0.747938 5.90765 0.916741 6.12045 1.12954C6.33325 1.34234 6.50206 1.59497 6.61723 1.87301C6.73239 2.15105 6.79167 2.44905 6.79167 2.74999V3.66666H7.25ZM4.5 1.37499C4.13533 1.37499 3.78559 1.51986 3.52773 1.77772C3.26987 2.03559 3.125 2.38532 3.125 2.74999V3.66666H5.875V2.74999C5.875 2.38532 5.73014 2.03559 5.47227 1.77772C5.21441 1.51986 4.86467 1.37499 4.5 1.37499Z" />
</svg>
