<svg width="18" height="15" viewBox="0 0 18 15" xmlns="http://www.w3.org/2000/svg">
<path d="M7.33333 7.83333V6.16666H13.1667C13.6269 6.16666 14 6.53976 14 7C14 7.46023 13.6269 7.83333 13.1667 7.83333H7.33333ZM7.33333 12.8333V11.1667H9.83333C10.2936 11.1667 10.6667 11.5398 10.6667 12C10.6667 12.4602 10.2936 12.8333 9.83333 12.8333H7.33333ZM7.33333 2.83333V1.16666H16.5C16.9602 1.16666 17.3333 1.53976 17.3333 1.99999C17.3333 2.46023 16.9602 2.83333 16.5 2.83333H7.33333ZM4 11.1667H6.08333L3.16667 14.0833L0.25 11.1667H2.33333V0.333328H4V11.1667Z"/>
</svg>
