<svg version="1.1" xmlns="http://www.w3.org/2000/svg" xmlns:xlink="http://www.w3.org/1999/xlink" preserveAspectRatio="xMidYMid meet" viewBox="0 0 656.64 679.68" width="656.64" height="679.68"><defs><path d="M270.06 390.18C403.38 390.18 477.45 390.18 492.26 390.18C509.79 390.18 524 371.81 524 349.14C524 326.48 509.79 308.11 492.26 308.11C477.45 308.11 403.38 308.11 270.06 308.11L270.06 390.18ZM270.06 143.96C327.2 143.96 358.94 143.96 365.29 143.96C382.82 143.96 397.03 125.59 397.03 102.92C397.03 80.26 382.82 61.89 365.29 61.89C358.94 61.89 327.2 61.89 270.06 61.89L270.06 143.96ZM270.06 636.4C479.56 636.4 595.95 636.4 619.23 636.4C636.76 636.4 650.97 618.03 650.97 595.37C650.97 572.7 636.76 554.33 619.23 554.33C595.95 554.33 479.56 554.33 270.06 554.33L270.06 636.4ZM222.45 143.96L111.35 0.33L0.25 143.96L79.61 143.96L79.61 677.44L143.09 677.44L143.09 143.96L222.45 143.96Z" id="a2Pr2jpdM7"></path></defs><g><g><g><use xlink:href="#a2Pr2jpdM7" opacity="1" fill-opacity="1"></use><g><use xlink:href="#a2Pr2jpdM7" opacity="1" fill-opacity="0" stroke="#000000" stroke-width="1" stroke-opacity="0"></use></g></g></g></g></svg>