<svg width="12" height="12"  xmlns="http://www.w3.org/2000/svg"><path d="M1.2.4h9.6c.318 0 .623.124.848.345.226.221.352.521.352.834v8.842c0 .313-.126.613-.351.834a1.21 1.21 0 01-.849.345H1.2a1.21 1.21 0 01-.849-.345A1.169 1.169 0 010 10.42V1.579C0 1.266.126.966.351.745.577.525.881.4 1.2.4zm0 2.358v1.768h2.4V2.758H1.2zm3.6 0v1.768h2.4V2.758H4.8zm6 1.768V2.758H8.4v1.768h2.4zm-9.6 1.18v1.768h2.4V5.705H1.2zm0 4.715h2.4V8.653H1.2v1.768zm3.6-4.716v1.769h2.4V5.705H4.8zm0 4.716h2.4V8.653H4.8v1.768zm6 0V8.653H8.4v1.768h2.4zm0-4.716H8.4v1.769h2.4V5.705z" /></svg>